{"glyphs":{"0":{"ha":892,"x_min":97,"x_max":794,"o":"m 446 -21 q 266 24 345 -21 q 142 148 187 69 q 97 328 97 227 l 97 672 q 142 852 97 773 q 266 976 187 931 q 446 1021 345 1021 q 626 976 547 1021 q 750 852 705 931 q 794 672 794 773 l 794 328 q 750 148 794 227 q 626 24 705 69 q 446 -21 547 -21 m 446 118 q 547 145 501 118 q 620 218 593 172 q 647 319 647 264 l 647 683 q 620 783 647 738 q 547 856 593 829 q 446 883 501 883 q 345 856 391 883 q 272 783 299 829 q 245 683 245 738 l 245 319 q 272 218 245 264 q 345 145 299 172 q 446 118 391 118 z "},"1":{"ha":586,"x_min":83,"x_max":419,"o":"m 272 840 l 83 726 l 83 888 l 272 1000 l 419 1000 l 419 0 l 272 0 l 272 840 z "},"2":{"ha":815,"x_min":69,"x_max":746,"o":"m 294 139 l 746 139 l 746 1 l 69 1 l 70 130 l 506 520 q 576 606 556 565 q 597 694 597 648 q 573 790 597 747 q 507 858 549 833 q 412 883 465 883 q 314 857 358 883 q 245 788 270 831 q 222 694 221 744 l 73 694 q 117 864 73 790 q 238 980 160 938 q 415 1021 316 1021 q 583 978 508 1021 q 702 860 659 935 q 746 692 746 785 q 728 577 746 625 q 677 490 711 530 q 583 397 644 451 l 294 139 z "},"3":{"ha":794,"x_min":56,"x_max":711,"o":"m 449 624 q 588 570 528 614 q 679 459 647 527 q 711 310 711 392 q 667 142 711 217 q 546 24 622 67 q 377 -19 469 -19 q 237 9 303 -19 q 124 90 172 38 q 56 213 76 142 l 196 251 q 265 153 215 188 q 377 119 314 118 q 473 144 431 119 q 539 212 515 169 q 563 310 563 256 q 539 409 563 365 q 473 477 515 453 q 376 502 431 502 q 281 477 328 502 l 213 592 l 519 862 l 95 862 l 95 1000 l 697 1000 l 697 862 l 449 624 z "},"4":{"ha":837,"x_min":69,"x_max":767,"o":"m 521 174 l 69 174 l 69 312 l 394 1000 l 560 1000 l 235 312 l 521 312 l 521 583 l 668 583 l 668 312 l 767 312 l 767 174 l 668 174 l 668 0 l 521 0 l 521 174 z "},"5":{"ha":810,"x_min":69,"x_max":741,"o":"m 417 642 q 583 600 509 642 q 699 482 657 557 q 741 315 741 407 q 693 147 741 224 q 566 24 646 69 q 394 -21 486 -21 q 251 11 318 -21 q 137 99 185 42 q 69 227 90 155 l 209 265 q 249 189 220 222 q 317 138 278 156 q 398 119 356 119 q 497 146 452 119 q 568 217 542 172 q 594 315 594 262 q 568 413 594 368 q 496 484 541 458 q 398 510 451 510 q 298 488 341 510 q 228 430 255 465 l 102 474 l 133 1000 l 672 1000 l 672 863 l 263 863 l 246 588 q 327 628 283 615 q 417 642 372 642 z "},"6":{"ha":863,"x_min":97,"x_max":784,"o":"m 460 643 q 626 600 552 643 q 742 482 700 557 q 784 315 784 407 q 738 146 784 223 q 612 24 691 69 q 441 -21 533 -21 q 267 25 345 -21 q 143 153 188 72 q 97 335 97 234 l 97 654 q 142 845 97 763 q 269 974 188 928 q 456 1020 351 1020 q 605 990 535 1020 q 724 901 674 960 l 618 802 q 546 861 589 840 q 456 883 503 883 q 347 853 395 883 q 272 776 299 824 q 245 673 245 728 l 245 553 q 343 619 288 596 q 460 643 399 643 m 441 119 q 539 145 494 119 q 610 216 584 172 q 637 315 637 261 q 611 413 637 368 q 540 484 585 458 q 442 510 495 510 q 343 484 388 510 q 272 413 298 458 q 245 315 245 368 q 272 217 245 262 q 343 145 298 172 q 441 119 388 119 z "},"7":{"ha":726,"x_min":56,"x_max":657,"o":"m 501 862 l 56 862 l 56 1000 l 657 1000 l 657 862 l 306 0 l 149 0 l 501 862 z "},"8":{"ha":835,"x_min":83,"x_max":752,"o":"m 630 536 q 721 430 690 494 q 752 290 752 366 q 709 128 752 199 q 590 18 667 58 q 417 -21 514 -21 q 244 18 320 -21 q 126 128 169 58 q 83 290 83 199 q 114 430 83 366 q 204 536 144 494 q 133 628 158 576 q 108 742 108 681 q 148 890 108 826 q 257 987 187 953 q 417 1021 327 1021 q 577 987 508 1021 q 686 890 647 953 q 726 742 726 826 q 702 627 726 679 q 630 536 678 575 m 417 883 q 305 847 347 883 q 263 742 263 811 q 305 639 263 674 q 417 603 347 603 q 530 639 488 603 q 572 742 572 674 q 530 847 572 811 q 417 883 488 883 m 417 117 q 549 163 500 117 q 598 290 598 208 q 549 419 598 374 q 417 465 500 465 q 286 419 335 465 q 237 290 237 374 q 286 162 237 207 q 417 117 335 117 z "},"9":{"ha":863,"x_min":79,"x_max":766,"o":"m 422 1020 q 597 974 518 1020 q 720 847 675 928 q 766 664 766 765 l 766 345 q 721 154 766 237 q 594 25 676 71 q 408 -21 513 -21 q 259 9 328 -21 q 139 98 190 40 l 245 197 q 317 138 274 160 q 408 117 360 117 q 516 146 468 117 q 591 223 564 175 q 618 326 618 272 l 618 446 q 520 380 576 403 q 403 356 464 356 q 237 399 311 356 q 121 517 163 442 q 79 685 79 592 q 126 853 79 776 q 251 975 172 931 q 422 1020 330 1020 m 422 489 q 520 515 475 489 q 592 586 565 542 q 618 685 618 631 q 592 783 618 738 q 520 854 565 828 q 422 881 476 881 q 324 854 369 881 q 253 783 279 828 q 226 685 226 738 q 252 586 226 631 q 323 515 278 542 q 422 489 368 489 z "}," ":{"ha":278,"x_min":0,"x_max":0,"o":""},"A":{"ha":915,"x_min":28,"x_max":887,"o":"m 736 0 l 662 226 l 251 226 l 178 0 l 28 0 l 353 1000 l 562 1000 l 887 0 l 736 0 m 296 362 l 617 362 l 456 855 l 296 362 z "},"B":{"ha":868,"x_min":97,"x_max":827,"o":"m 674 528 q 787 435 747 497 q 827 292 827 372 q 792 138 827 203 q 689 36 756 72 q 528 0 622 0 l 97 0 l 97 1000 l 490 1000 q 648 962 582 1000 q 747 863 713 924 q 780 731 780 801 q 752 610 780 663 q 674 528 724 558 m 244 592 l 488 592 q 561 608 528 592 q 613 656 594 625 q 631 730 631 688 q 614 799 631 769 q 563 846 596 829 q 488 863 531 863 l 244 863 l 244 592 m 506 138 q 595 157 556 138 q 656 211 634 176 q 678 294 678 247 q 658 376 678 340 q 601 434 638 413 q 515 455 563 455 l 244 455 l 244 138 l 506 138 z "},"C":{"ha":1015,"x_min":42,"x_max":959,"o":"m 515 -21 q 260 44 367 -21 q 98 227 153 110 q 42 500 42 345 q 98 773 42 655 q 260 956 153 890 q 515 1021 367 1021 q 718 982 628 1021 q 868 870 808 942 q 959 698 929 797 l 812 658 q 706 824 781 765 q 515 883 631 883 q 339 835 410 883 q 232 702 267 788 q 195 500 196 616 q 231 298 194 384 q 339 165 267 212 q 515 117 410 117 q 706 176 631 117 q 812 342 781 235 l 959 302 q 868 130 929 203 q 718 18 808 58 q 515 -21 628 -21 z "},"D":{"ha":959,"x_min":97,"x_max":894,"o":"m 410 1000 q 535 994 488 1000 q 730 911 649 979 q 853 736 811 843 q 894 500 894 629 q 853 264 894 371 q 730 89 811 157 q 535 6 649 21 q 410 0 488 0 l 97 0 l 97 1000 l 410 1000 m 410 138 q 524 145 488 138 q 646 210 598 159 q 717 335 694 260 q 740 500 740 410 q 717 666 740 591 q 645 792 694 742 q 524 855 597 842 q 410 862 488 862 l 246 862 l 246 138 l 410 138 z "},"E":{"ha":806,"x_min":97,"x_max":736,"o":"m 97 1000 l 736 1000 l 736 863 l 242 863 l 242 583 l 653 583 l 653 446 l 242 446 l 242 137 l 736 137 l 736 0 l 97 0 l 97 1000 z "},"F":{"ha":717,"x_min":97,"x_max":690,"o":"m 97 1000 l 690 1000 l 690 855 l 242 855 l 242 573 l 606 573 l 606 427 l 242 427 l 242 0 l 97 0 l 97 1000 z "},"G":{"ha":1004,"x_min":42,"x_max":963,"o":"m 506 -21 q 266 42 372 -21 q 101 222 161 104 q 42 500 42 340 q 100 777 42 659 q 264 957 159 894 q 506 1020 369 1020 q 785 940 678 1020 q 931 712 892 860 l 784 685 q 684 830 753 777 q 515 883 615 882 q 339 836 410 883 q 232 702 268 789 q 196 500 197 616 q 232 297 195 383 q 341 164 268 211 q 519 117 413 117 q 718 191 645 117 q 806 403 790 264 l 611 403 l 611 519 l 960 519 q 963 460 963 497 q 909 211 963 320 q 752 41 855 102 q 506 -21 649 -21 z "},"H":{"ha":985,"x_min":97,"x_max":888,"o":"m 97 1000 l 242 1000 l 242 569 l 742 569 l 742 1000 l 888 1000 l 888 0 l 742 0 l 742 432 l 242 432 l 242 0 l 97 0 l 97 1000 z "},"I":{"ha":367,"x_min":111,"x_max":256,"o":"m 111 1000 l 256 1000 l 256 0 l 111 0 l 111 1000 z "},"J":{"ha":678,"x_min":0,"x_max":567,"o":"m 288 -20 q 104 37 179 -20 q 0 195 29 94 l 144 229 q 170 172 150 198 q 220 132 191 147 q 283 117 250 117 q 353 134 319 117 q 403 188 387 152 q 417 238 415 210 q 419 320 419 266 l 419 1000 l 567 1000 l 567 320 l 567 269 q 561 182 567 217 q 534 113 555 148 q 432 13 496 46 q 288 -20 368 -20 z "},"K":{"ha":874,"x_min":97,"x_max":874,"o":"m 97 1000 l 242 1000 l 242 533 l 661 1000 l 842 1000 l 399 512 l 874 0 l 688 0 l 242 478 l 242 0 l 97 0 l 97 1000 z "},"L":{"ha":730,"x_min":111,"x_max":709,"o":"m 111 1000 l 256 1000 l 256 137 l 709 137 l 709 0 l 111 0 l 111 1000 z "},"M":{"ha":1181,"x_min":97,"x_max":1084,"o":"m 97 1000 l 228 1000 l 591 248 l 951 1000 l 1084 1000 l 1084 1 l 947 1 l 947 685 l 624 0 l 558 0 l 234 685 l 234 0 l 97 0 l 97 1000 z "},"N":{"ha":981,"x_min":97,"x_max":884,"o":"m 97 1000 l 244 1000 l 737 257 l 737 1000 l 884 1000 l 884 0 l 737 0 l 244 744 l 244 0 l 97 0 l 97 1000 z "},"O":{"ha":1028,"x_min":42,"x_max":987,"o":"m 515 -21 q 260 44 367 -21 q 98 227 153 110 q 42 500 42 345 q 98 773 42 655 q 260 956 153 890 q 515 1021 367 1021 q 768 956 662 1021 q 931 773 875 890 q 987 500 987 655 q 931 227 987 345 q 768 44 875 110 q 515 -21 662 -21 m 515 117 q 690 164 619 117 q 797 298 761 211 q 833 500 833 384 q 797 702 833 616 q 690 835 761 788 q 515 883 619 882 q 339 836 410 883 q 232 702 268 789 q 196 500 197 616 q 231 298 195 384 q 339 165 267 213 q 515 117 410 118 z "},"P":{"ha":871,"x_min":97,"x_max":829,"o":"m 501 1000 q 578 994 543 1000 q 717 939 660 982 q 801 828 773 895 q 829 680 829 762 q 801 531 829 597 q 716 421 772 465 q 578 365 660 378 q 501 359 543 359 l 242 359 l 242 0 l 97 0 l 97 1000 l 501 1000 m 496 497 q 559 503 532 497 q 651 568 621 518 q 681 680 681 618 q 651 792 681 742 q 559 856 621 842 q 496 863 533 863 l 242 863 l 242 497 l 496 497 z "},"Q":{"ha":1028,"x_min":42,"x_max":987,"o":"m 987 500 q 962 310 987 398 q 889 157 937 223 l 973 73 l 881 -20 l 797 64 q 515 -21 683 -21 q 260 44 367 -21 q 98 227 153 110 q 42 500 42 345 q 98 773 42 655 q 260 956 153 890 q 515 1021 367 1021 q 768 956 662 1021 q 931 773 875 890 q 987 500 987 655 m 519 117 q 694 166 622 117 l 602 258 l 695 351 l 781 265 q 833 500 833 360 q 797 702 833 616 q 690 835 761 788 q 515 883 619 882 q 339 836 410 883 q 232 702 268 789 q 196 500 197 616 q 232 297 195 383 q 341 164 268 211 q 519 117 413 117 z "},"R":{"ha":903,"x_min":97,"x_max":848,"o":"m 682 0 l 508 359 l 242 359 l 242 0 l 97 0 l 97 1000 l 501 1000 q 578 994 543 1000 q 717 939 660 982 q 801 828 773 895 q 829 680 829 762 q 786 501 829 578 q 659 388 742 424 l 848 0 l 682 0 m 242 497 l 496 497 q 559 503 532 497 q 651 568 621 518 q 681 680 681 618 q 651 792 681 742 q 559 856 621 842 q 496 863 533 863 l 242 863 l 242 497 z "},"S":{"ha":894,"x_min":51,"x_max":843,"o":"m 460 -21 q 265 16 352 -21 q 123 123 178 53 q 51 287 67 193 l 202 310 q 255 206 217 249 q 348 139 293 162 q 468 116 403 116 q 580 135 528 116 q 661 191 631 155 q 692 276 692 227 q 659 358 692 327 q 566 407 626 389 l 310 483 q 152 567 215 510 q 90 733 90 624 q 136 889 90 824 q 265 987 183 953 q 448 1020 346 1021 q 629 984 549 1019 q 763 884 710 949 q 836 727 816 818 l 681 701 q 635 798 669 757 q 550 861 601 840 q 440 883 499 883 q 341 865 386 883 q 269 814 296 847 q 243 740 243 781 q 286 656 243 685 q 399 608 328 627 l 583 556 q 705 511 651 537 q 801 430 759 485 q 843 285 843 375 q 791 119 843 188 q 652 15 740 50 q 460 -21 565 -21 z "},"T":{"ha":838,"x_min":14,"x_max":824,"o":"m 347 863 l 14 863 l 14 1000 l 824 1000 l 824 863 l 492 863 l 492 0 l 347 0 l 347 863 z "},"U":{"ha":992,"x_min":97,"x_max":894,"o":"m 496 -21 q 289 27 379 -21 q 148 164 198 76 q 97 368 97 252 l 97 999 l 244 1000 l 244 376 q 280 235 244 294 q 374 146 316 176 q 496 116 431 116 q 618 147 560 116 q 711 236 676 177 q 747 376 747 295 l 747 1000 l 894 1000 l 894 368 q 844 164 894 252 q 703 27 794 76 q 496 -21 613 -21 z "},"V":{"ha":873,"x_min":7,"x_max":866,"o":"m 7 1000 l 158 1000 l 435 147 l 715 1000 l 866 1000 l 541 0 l 332 0 l 7 1000 z "},"W":{"ha":1337,"x_min":19,"x_max":1318,"o":"m 19 1000 l 171 1000 l 381 244 l 592 999 l 744 1000 l 955 244 l 1165 1000 l 1318 1000 l 1027 0 l 883 0 l 668 748 l 453 0 l 309 0 l 19 1000 z "},"X":{"ha":888,"x_min":14,"x_max":874,"o":"m 355 506 l 23 1000 l 201 1000 l 444 629 l 687 1000 l 865 1000 l 533 506 l 874 0 l 696 0 l 444 383 l 192 0 l 14 0 l 355 506 z "},"Y":{"ha":824,"x_min":0,"x_max":824,"o":"m 338 413 l 0 1000 l 169 1000 l 412 580 l 654 1000 l 824 1000 l 485 413 l 485 0 l 338 0 l 338 413 z "},"Z":{"ha":899,"x_min":69,"x_max":829,"o":"m 69 23 l 580 863 l 97 863 l 97 1000 l 829 1000 l 829 976 l 322 138 l 820 138 l 820 0 l 69 0 l 69 23 z "},"a":{"ha":791,"x_min":56,"x_max":708,"o":"m 681 628 q 702 555 697 594 q 708 462 708 517 l 708 0 l 579 0 l 579 109 q 466 11 533 43 q 309 -21 400 -21 q 172 9 228 -21 q 85 91 115 40 q 56 204 56 142 q 233 426 56 370 q 354 454 286 442 q 542 482 422 465 l 565 485 q 522 600 561 564 q 395 637 482 637 q 284 608 332 637 q 218 519 236 578 l 83 560 q 190 715 110 660 q 397 771 269 771 q 574 735 500 771 q 681 628 647 700 m 335 98 q 439 119 394 98 q 511 174 484 140 q 548 247 539 208 q 563 364 562 287 l 545 361 q 393 338 444 347 q 303 317 343 328 q 227 274 254 300 q 199 206 199 247 q 234 128 199 159 q 335 98 268 98 z "},"b":{"ha":844,"x_min":97,"x_max":789,"o":"m 447 771 q 627 720 550 771 q 747 579 705 669 q 789 376 789 489 q 747 173 789 263 q 628 31 706 83 q 449 -21 551 -21 q 324 2 380 -21 q 226 69 267 26 l 226 0 l 97 0 l 97 1000 l 242 1000 l 242 699 q 447 771 324 771 m 429 110 q 543 145 497 110 q 612 240 589 180 q 635 376 635 299 q 612 511 635 451 q 542 605 589 571 q 424 640 494 640 q 275 568 325 640 q 226 376 226 497 q 276 182 226 253 q 429 110 326 110 z "},"c":{"ha":790,"x_min":56,"x_max":745,"o":"m 418 -21 q 224 30 306 -21 q 99 170 142 81 q 56 375 56 260 q 100 581 56 491 q 227 721 144 671 q 420 771 309 771 q 568 743 501 771 q 681 664 635 715 q 745 542 726 613 l 601 501 q 530 599 579 563 q 418 634 481 634 q 263 564 315 634 q 210 375 210 493 q 264 186 210 256 q 418 116 317 116 q 530 148 486 116 q 598 241 574 179 l 745 206 q 624 38 708 96 q 418 -21 539 -21 z "},"d":{"ha":845,"x_min":56,"x_max":748,"o":"m 748 1000 l 748 0 l 619 0 l 619 69 q 521 2 577 26 q 395 -21 465 -21 q 216 31 293 -21 q 97 173 139 83 q 56 376 56 263 q 98 579 56 489 q 217 720 140 669 q 398 771 294 771 q 602 699 520 771 l 602 1000 l 748 1000 m 415 110 q 568 182 518 110 q 619 376 619 253 q 569 568 619 497 q 420 640 519 640 q 303 605 350 640 q 233 511 256 571 q 210 376 210 451 q 233 240 210 299 q 302 145 256 180 q 415 110 348 110 z "},"e":{"ha":828,"x_min":56,"x_max":772,"o":"m 211 334 q 274 173 220 229 q 423 116 328 116 q 540 147 490 116 q 618 235 590 177 l 760 190 q 628 35 717 91 q 430 -21 540 -21 q 234 28 319 -21 q 102 166 149 77 q 56 369 56 254 q 101 581 56 490 q 231 722 147 672 q 423 771 314 771 q 609 723 531 771 q 730 586 688 675 q 772 375 772 497 q 770 334 772 362 l 211 334 m 428 642 q 282 593 336 642 q 215 447 228 543 l 622 447 q 562 594 610 547 q 428 642 515 642 z "},"f":{"ha":515,"x_min":42,"x_max":501,"o":"m 413 901 q 336 876 362 901 q 311 804 311 851 l 311 750 l 501 750 l 501 633 l 311 633 l 311 0 l 166 0 l 166 633 l 42 633 l 42 750 l 166 750 l 166 776 q 168 845 166 817 q 181 904 171 874 q 214 959 192 935 q 273 1002 240 988 q 335 1018 306 1015 q 406 1021 365 1021 l 501 1021 l 501 901 l 413 901 z "},"g":{"ha":844,"x_min":56,"x_max":747,"o":"m 747 750 l 747 -20 q 738 -131 747 -86 q 628 -298 715 -242 q 406 -354 541 -354 q 234 -311 313 -354 q 109 -190 154 -269 l 243 -122 q 311 -191 267 -168 q 408 -215 355 -215 q 552 -165 501 -215 q 601 -19 603 -115 l 601 52 q 395 -21 519 -21 q 216 31 293 -21 q 97 173 139 83 q 56 376 56 263 q 98 579 56 489 q 217 720 140 669 q 398 771 294 771 q 522 748 467 771 q 619 683 578 725 l 619 750 l 747 750 m 415 110 q 568 182 518 110 q 619 376 619 253 q 569 568 619 497 q 420 640 519 640 q 303 605 350 640 q 233 511 256 571 q 210 376 210 451 q 233 240 210 299 q 302 145 256 180 q 415 110 348 110 z "},"h":{"ha":854,"x_min":97,"x_max":771,"o":"m 474 770 q 659 711 592 770 q 748 572 725 651 q 771 417 771 493 l 771 0 l 624 0 l 624 369 q 583 556 624 479 q 434 633 542 633 q 296 574 349 633 q 244 390 244 516 l 244 0 l 97 0 l 97 1000 l 226 1000 l 226 660 q 331 742 269 713 q 474 770 394 770 z "},"i":{"ha":367,"x_min":111,"x_max":256,"o":"m 111 1014 l 256 1014 l 256 873 l 111 873 l 111 1014 m 111 750 l 256 750 l 256 0 l 111 0 l 111 750 z "},"j":{"ha":383,"x_min":-14,"x_max":281,"o":"m 135 1014 l 281 1014 l 281 873 l 135 873 l 135 1014 m 24 -196 q 108 -168 81 -196 q 135 -83 135 -140 l 135 750 l 281 750 l 281 -142 q 231 -283 281 -233 q 87 -333 180 -333 l -14 -333 l -14 -196 l 24 -196 z "},"k":{"ha":728,"x_min":97,"x_max":756,"o":"m 97 1000 l 244 1000 l 244 389 l 539 750 l 724 750 l 413 375 l 756 0 l 558 0 l 244 361 l 244 0 l 97 0 l 97 1000 z "},"l":{"ha":367,"x_min":111,"x_max":256,"o":"m 111 1021 l 256 1021 l 256 0 l 111 0 l 111 1021 z "},"m":{"ha":1225,"x_min":97,"x_max":1142,"o":"m 887 769 q 1024 736 966 769 q 1111 643 1081 703 q 1142 502 1142 583 l 1141 0 l 996 0 l 997 467 q 978 559 997 520 q 925 619 959 598 q 845 640 890 640 q 768 620 803 640 q 713 562 733 601 q 692 469 692 524 l 692 0 l 547 0 l 547 465 q 528 558 547 518 q 475 618 510 597 q 395 640 441 640 q 315 618 350 640 q 261 558 281 597 q 242 469 242 519 l 242 0 l 97 0 l 97 750 l 226 750 l 226 669 q 318 742 263 716 q 441 769 374 769 q 573 737 517 769 q 659 647 628 705 q 754 736 694 704 q 887 769 814 769 z "},"n":{"ha":854,"x_min":97,"x_max":771,"o":"m 474 770 q 659 711 592 770 q 748 572 725 651 q 771 417 771 493 l 771 0 l 624 0 l 624 369 q 583 556 624 479 q 434 633 542 633 q 296 574 349 633 q 244 390 244 516 l 244 0 l 97 0 l 97 750 l 226 750 l 226 660 q 331 742 269 713 q 474 770 394 770 z "},"o":{"ha":847,"x_min":56,"x_max":791,"o":"m 423 -21 q 229 30 313 -21 q 101 170 146 80 q 56 376 56 260 q 101 582 56 492 q 231 721 147 672 q 423 771 314 771 q 617 721 533 771 q 746 581 701 671 q 791 376 791 491 q 745 169 791 259 q 617 29 700 79 q 423 -21 533 -21 m 423 116 q 582 186 527 116 q 637 376 637 257 q 582 565 637 496 q 423 634 527 634 q 264 565 317 634 q 210 376 210 495 q 265 185 210 255 q 423 116 319 116 z "},"p":{"ha":844,"x_min":97,"x_max":789,"o":"m 447 771 q 627 720 550 771 q 747 579 705 669 q 789 376 789 489 q 747 173 789 263 q 628 31 706 83 q 449 -21 551 -21 q 242 53 326 -21 l 242 -333 l 97 -333 l 97 750 l 226 750 l 226 683 q 322 748 267 725 q 447 771 378 771 m 429 110 q 543 145 497 110 q 612 240 589 180 q 635 376 635 299 q 612 511 635 451 q 542 605 589 571 q 424 640 494 640 q 275 568 325 640 q 226 376 226 497 q 276 182 226 253 q 429 110 326 110 z "},"q":{"ha":845,"x_min":56,"x_max":748,"o":"m 748 750 l 748 -333 l 602 -333 l 602 53 q 395 -21 519 -21 q 216 31 293 -21 q 97 173 139 83 q 56 376 56 263 q 98 579 56 489 q 217 720 140 669 q 398 771 294 771 q 522 748 467 771 q 619 683 578 725 l 619 750 l 748 750 m 415 110 q 568 182 518 110 q 619 376 619 253 q 569 568 619 497 q 420 640 519 640 q 303 605 350 640 q 233 511 256 571 q 210 376 210 451 q 233 240 210 299 q 302 145 256 180 q 415 110 348 110 z "},"r":{"ha":537,"x_min":97,"x_max":502,"o":"m 296 708 q 368 743 327 731 q 451 755 409 755 q 502 750 474 755 l 502 614 q 447 621 478 621 q 390 614 418 621 q 338 591 362 606 q 244 378 244 531 l 244 0 l 97 0 l 97 750 l 226 750 l 226 631 q 296 708 254 680 z "},"s":{"ha":744,"x_min":56,"x_max":688,"o":"m 384 -20 q 161 40 247 -20 q 56 210 75 101 l 204 233 q 268 141 218 174 q 394 108 319 108 q 500 135 462 108 q 539 212 539 163 q 525 259 539 242 q 470 291 511 276 q 338 331 430 306 q 184 385 239 357 q 104 452 128 414 q 80 546 80 490 q 116 664 80 613 q 218 743 152 715 q 372 771 284 771 q 525 744 457 771 q 634 667 593 717 q 684 551 676 617 l 535 524 q 481 611 527 579 q 361 643 435 643 q 263 618 300 643 q 225 553 225 594 q 241 511 225 528 q 301 478 257 494 q 435 440 344 463 q 585 386 531 415 q 664 316 640 356 q 688 217 688 276 q 652 90 688 144 q 547 8 615 37 q 384 -20 478 -20 z "},"t":{"ha":587,"x_min":14,"x_max":526,"o":"m 303 302 l 303 263 q 306 205 303 227 q 319 167 309 183 q 366 127 335 140 q 440 115 396 115 q 526 123 477 115 l 526 0 q 408 -12 462 -12 q 272 13 330 -12 q 185 91 214 38 q 163 158 168 124 q 158 242 158 192 l 158 295 l 158 633 l 14 633 l 14 750 l 158 750 l 158 958 l 303 958 l 303 750 l 526 750 l 526 633 l 303 633 l 303 302 z "},"u":{"ha":854,"x_min":83,"x_max":757,"o":"m 757 750 l 757 0 l 628 0 l 628 90 q 523 8 585 37 q 380 -20 460 -20 q 195 39 262 -20 q 106 178 129 99 q 83 333 83 257 l 83 750 l 231 750 l 231 381 q 272 194 231 271 q 420 117 313 117 q 558 176 506 117 q 610 360 610 234 l 610 750 l 757 750 z "},"v":{"ha":747,"x_min":28,"x_max":719,"o":"m 28 750 l 174 750 l 374 182 l 573 750 l 719 750 l 447 0 l 300 0 l 28 750 z "},"w":{"ha":1098,"x_min":28,"x_max":1070,"o":"m 28 751 l 172 750 l 328 235 l 487 750 l 612 750 l 770 235 l 927 750 l 1070 750 l 841 0 l 724 0 l 549 543 l 374 0 l 257 0 l 28 751 z "},"x":{"ha":757,"x_min":14,"x_max":743,"o":"m 294 379 l 20 750 l 192 750 l 379 492 l 564 750 l 736 750 l 462 379 l 743 0 l 570 0 l 379 266 l 187 0 l 14 0 l 294 379 z "},"y":{"ha":762,"x_min":19,"x_max":751,"o":"m 603 750 l 751 750 l 337 -333 l 199 -333 l 322 3 l 19 750 l 170 750 l 392 186 l 603 750 z "},"z":{"ha":740,"x_min":28,"x_max":684,"o":"m 28 23 l 453 620 l 67 620 l 67 750 l 684 750 l 684 726 l 259 130 l 663 130 l 663 0 l 28 0 l 28 23 z "}}}
